<svg width="68" height="70" viewBox="0 0 68 70" fill="none" xmlns="http://www.w3.org/2000/svg">
<circle cx="10.5" cy="11.5" r="10.5" fill="white"/>
<circle cx="56.5" cy="59.5" r="10.5" fill="white"/>
<rect x="1" y="49" width="19" height="19" fill="white"/>
<rect x="56.1088" y="0.108765" width="15.7101" height="15.7101" transform="rotate(45 56.1088 0.108765)" fill="white"/>
<path d="M40 61C40.8284 61 41.5 60.3284 41.5 59.5C41.5 58.6716 40.8284 58 40 58L40 61ZM40 58L22 58L22 61L40 61L40 58Z" fill="white"/>
<path d="M24 10.5C23.1716 10.5 22.5 11.1716 22.5 12C22.5 12.8284 23.1716 13.5 24 13.5L24 10.5ZM24 13.5L42 13.5L42 10.5L24 10.5L24 13.5Z" fill="white"/>
<path d="M57 28C57 27.1716 56.3284 26.5 55.5 26.5C54.6716 26.5 54 27.1716 54 28L57 28ZM54 28L54 46L57 46L57 28L54 28Z" fill="white"/>
<path d="M29.5136 55.1057C30.1243 54.5459 30.1655 53.5971 29.6057 52.9864C29.0459 52.3757 28.0971 52.3345 27.4864 52.8943L29.5136 55.1057ZM22.5 59.5L21.4864 58.3943C21.1848 58.6707 21.0092 59.0584 21.0004 59.4674C20.9915 59.8764 21.15 60.2714 21.4393 60.5607L22.5 59.5ZM27.4393 66.5607C28.0251 67.1464 28.9749 67.1464 29.5607 66.5607C30.1464 65.9749 30.1464 65.0251 29.5607 64.4393L27.4393 66.5607ZM27.4864 52.8943L21.4864 58.3943L23.5136 60.6057L29.5136 55.1057L27.4864 52.8943ZM21.4393 60.5607L27.4393 66.5607L29.5607 64.4393L23.5607 58.4393L21.4393 60.5607Z" fill="white"/>
<path d="M34.4864 16.3943C33.8757 16.9541 33.8345 17.9029 34.3943 18.5136C34.9541 19.1243 35.9029 19.1655 36.5136 18.6057L34.4864 16.3943ZM41.5 12L42.5136 13.1057C42.8152 12.8293 42.9908 12.4416 42.9996 12.0326C43.0085 11.6236 42.85 11.2286 42.5607 10.9393L41.5 12ZM36.5607 4.93934C35.9749 4.35355 35.0251 4.35355 34.4393 4.93934C33.8536 5.52513 33.8536 6.47487 34.4393 7.06066L36.5607 4.93934ZM36.5136 18.6057L42.5136 13.1057L40.4864 10.8943L34.4864 16.3943L36.5136 18.6057ZM42.5607 10.9393L36.5607 4.93934L34.4393 7.06066L40.4393 13.0607L42.5607 10.9393Z" fill="white"/>
<path d="M51.1057 38.4864C50.5459 37.8757 49.5971 37.8345 48.9864 38.3943C48.3757 38.9541 48.3345 39.9029 48.8943 40.5136L51.1057 38.4864ZM55.5 45.5L54.3943 46.5136C54.6707 46.8152 55.0584 46.9908 55.4674 46.9996C55.8764 47.0085 56.2714 46.85 56.5607 46.5607L55.5 45.5ZM62.5607 40.5607C63.1464 39.9749 63.1464 39.0251 62.5607 38.4393C61.9749 37.8536 61.0251 37.8536 60.4393 38.4393L62.5607 40.5607ZM48.8943 40.5136L54.3943 46.5136L56.6057 44.4864L51.1057 38.4864L48.8943 40.5136ZM56.5607 46.5607L62.5607 40.5607L60.4393 38.4393L54.4393 44.4393L56.5607 46.5607Z" fill="white"/>
</svg>
