<svg width="91" height="91" viewBox="0 0 91 91" fill="none" xmlns="http://www.w3.org/2000/svg">
    <path
        d="M87.4505 28.1566C86.7086 26.3717 84.6602 25.5261 82.8752 26.2681C81.0903 27.01 80.2448 29.0585 80.9867 30.8434L87.4505 28.1566ZM43.3808 82.8677C45.2833 83.2097 47.1028 81.9446 47.4448 80.0421C47.7868 78.1396 46.5217 76.3201 44.6192 75.9781L43.3808 82.8677ZM19.8935 17.7453C18.6482 19.2237 18.8373 21.4317 20.3157 22.677C21.7942 23.9222 24.0022 23.7332 25.2474 22.2547L19.8935 17.7453ZM80.9867 30.8434C82.6049 34.7364 83.5 39.0092 83.5 43.5H90.5C90.5 38.0709 89.4165 32.8861 87.4505 28.1566L80.9867 30.8434ZM44.6192 75.9781C29.1998 73.2066 17.5 59.716 17.5 43.5H10.5C10.5 63.1639 24.6856 79.5073 43.3808 82.8677L44.6192 75.9781ZM25.2474 22.2547C31.3063 15.0612 40.3688 10.5 50.5 10.5V3.5C38.2175 3.5 27.2255 9.04017 19.8935 17.7453L25.2474 22.2547ZM50.5 10.5C59.9796 10.5 68.5211 14.4925 74.5446 20.8977L79.644 16.1023C72.3527 8.34901 61.9899 3.5 50.5 3.5V10.5ZM83.5 43.5C83.5 58.0873 74.0329 70.4725 60.8981 74.8294L63.1019 81.4735C79.0144 76.1952 90.5 61.1934 90.5 43.5H83.5ZM17.5 43.5C17.5 40.0282 18.0349 36.688 19.0244 33.5536L12.3491 31.4464C11.147 35.2545 10.5 39.305 10.5 43.5H17.5Z"
        fill="white" />
    <path
        d="M1.2968 37.5304C-0.0671425 38.471 -0.410289 40.3393 0.530362 41.7032C1.47101 43.0671 3.33926 43.4103 4.7032 42.4696L1.2968 37.5304ZM17.5 30L20.2185 28.7313C19.8452 27.9313 19.1384 27.3363 18.2863 27.1049C17.4343 26.8735 16.5236 27.0291 15.7968 27.5304L17.5 30ZM21.7815 46.2687C22.4821 47.7701 24.2672 48.4192 25.7687 47.7185C27.2701 47.0179 27.9192 45.2328 27.2185 43.7313L21.7815 46.2687ZM4.7032 42.4696L19.2032 32.4696L15.7968 27.5304L1.2968 37.5304L4.7032 42.4696ZM14.7815 31.2687L21.7815 46.2687L27.2185 43.7313L20.2185 28.7313L14.7815 31.2687Z"
        fill="white" />
    <path
        d="M78.9031 2.51532C78.53 0.901023 76.9189 -0.105172 75.3046 0.267923C73.6903 0.641019 72.6841 2.25212 73.0572 3.86642L78.9031 2.51532ZM79.9465 20.3524L80.1264 23.347C81.0077 23.2941 81.821 22.8556 82.3495 22.1484C82.8781 21.4412 83.0683 20.5371 82.8695 19.6769L79.9465 20.3524ZM63.2434 18.3505C61.5896 18.4499 60.3294 19.8712 60.4288 21.525C60.5281 23.1789 61.9494 24.4391 63.6033 24.3397L63.2434 18.3505ZM73.0572 3.86642L77.0236 21.0279L82.8695 19.6769L78.9031 2.51532L73.0572 3.86642ZM79.7666 17.3578L63.2434 18.3505L63.6033 24.3397L80.1264 23.347L79.7666 17.3578Z"
        fill="white" />
    <path
        d="M75.6007 86.6341C77.1952 87.0844 78.8528 86.1569 79.3032 84.5625C79.7535 82.968 78.826 81.3103 77.2315 80.86L75.6007 86.6341ZM59.4653 78.9594L56.7541 77.6751C56.3762 78.473 56.3689 79.3969 56.7341 80.2007C57.0994 81.0045 57.8002 81.6065 58.6499 81.8465L59.4653 78.9594ZM69.2629 65.2844C69.9722 63.787 69.3333 61.9982 67.836 61.2889C66.3387 60.5796 64.5498 61.2184 63.8405 62.7157L69.2629 65.2844ZM77.2315 80.86L60.2807 76.0724L58.6499 81.8465L75.6007 86.6341L77.2315 80.86ZM62.1765 80.2438L69.2629 65.2844L63.8405 62.7157L56.7541 77.6751L62.1765 80.2438Z"
        fill="white" />
    <circle cx="50.5" cy="43.5" r="15" stroke="white" stroke-width="3" />
    <path d="M50.5 34V43.5L57 50" stroke="white" stroke-width="2" stroke-linecap="round" />
    <circle cx="50.5" cy="31.5" r="0.5" fill="white" />
    <circle cx="61.5" cy="43.5" r="0.5" fill="white" />
    <circle cx="50.5" cy="54.5" r="0.5" fill="white" />
    <circle cx="39.5" cy="43.5" r="0.5" fill="white" />
</svg>
