<svg width="66" height="58" viewBox="0 0 66 58" fill="none" xmlns="http://www.w3.org/2000/svg">
<circle cx="15" cy="23" r="7" fill="white"/>
<path d="M26 44.5C26 42.7272 25.6637 40.9717 25.0104 39.3338C24.3571 37.6959 23.3995 36.2076 22.1924 34.9541C20.9852 33.7005 19.5521 32.7061 17.9749 32.0276C16.3977 31.3492 14.7072 31 13 31C11.2928 31 9.60235 31.3492 8.02511 32.0276C6.44788 32.7061 5.01477 33.7005 3.80761 34.9541C2.60045 36.2077 1.64288 37.6959 0.989566 39.3338C0.336255 40.9717 -1.49247e-07 42.7272 0 44.5L13 44.5H26Z" fill="white"/>
<path d="M39.9211 25.7326C41.4303 24.1194 41.3459 21.5881 39.7326 20.0789C38.1194 18.5697 35.5881 18.6541 34.0789 20.2674L39.9211 25.7326ZM25.4211 41.2326L39.9211 25.7326L34.0789 20.2674L19.5789 35.7674L25.4211 41.2326Z" fill="white"/>
<path d="M15 15.2667V6C15 4.34315 16.3431 3 18 3H60C61.6569 3 63 4.34315 63 6V32C63 33.6569 61.6569 35 60 35H34.2" stroke="white" stroke-width="6"/>
</svg>
